Lora-Regular.ufo
<glyph name="asterisk" format="1">
  <advance width="1065"/>
  <unicode hex="002A"/>
  <outline>
    <contour>
      <point x="456" y="1467"/>
      <point x="446" y="1383"/>
      <point x="454" y="1318" type="curve" smooth="yes"/>
      <point x="464" y="1226"/>
      <point x="477" y="1121"/>
      <point x="501" y="1041" type="curve"/>
      <point x="432" y="1088"/>
      <point x="337" y="1131"/>
      <point x="253" y="1170" type="curve" smooth="yes"/>
      <point x="192" y="1199"/>
      <point x="110" y="1215"/>
      <point x="85" y="1144" type="curve" smooth="yes"/>
      <point x="61" y="1072"/>
      <point x="137" y="1039"/>
      <point x="202" y="1025" type="curve" smooth="yes"/>
      <point x="290" y="1008"/>
      <point x="397" y="988"/>
      <point x="483" y="984" type="curve"/>
      <point x="415" y="933"/>
      <point x="346" y="859"/>
      <point x="282" y="791" type="curve" smooth="yes"/>
      <point x="239" y="742"/>
      <point x="198" y="664"/>
      <point x="257" y="619" type="curve"/>
      <point x="319" y="576"/>
      <point x="372" y="636"/>
      <point x="405" y="693" type="curve" smooth="yes"/>
      <point x="448" y="773"/>
      <point x="501" y="871"/>
      <point x="532" y="949" type="curve"/>
      <point x="561" y="871"/>
      <point x="616" y="773"/>
      <point x="659" y="693" type="curve"/>
      <point x="694" y="636"/>
      <point x="747" y="576"/>
      <point x="806" y="619" type="curve" smooth="yes"/>
      <point x="868" y="664"/>
      <point x="825" y="744"/>
      <point x="780" y="791" type="curve" smooth="yes"/>
      <point x="716" y="859"/>
      <point x="645" y="931"/>
      <point x="579" y="984" type="curve"/>
      <point x="663" y="988"/>
      <point x="769" y="1008"/>
      <point x="858" y="1025" type="curve"/>
      <point x="925" y="1041"/>
      <point x="999" y="1072"/>
      <point x="974" y="1144" type="curve" smooth="yes"/>
      <point x="952" y="1213"/>
      <point x="866" y="1199"/>
      <point x="806" y="1170" type="curve" smooth="yes"/>
      <point x="722" y="1129"/>
      <point x="630" y="1086"/>
      <point x="559" y="1041" type="curve"/>
      <point x="583" y="1121"/>
      <point x="595" y="1226"/>
      <point x="606" y="1318" type="curve" smooth="yes"/>
      <point x="614" y="1383"/>
      <point x="608" y="1467"/>
      <point x="532" y="1467" type="curve" smooth="yes"/>
    </contour>
  </outline>
</glyph>
<glyph name="comma" format="1">
  <advance width="518"/>
  <unicode hex="002C"/>
  <outline>
    <contour>
      <point x="186" y="207"/>
      <point x="135" y="164"/>
      <point x="135" y="88" type="curve" smooth="yes"/>
      <point x="135" y="15"/>
      <point x="202" y="-34"/>
      <point x="280" y="0" type="curve" smooth="yes"/>
      <point x="295" y="-125"/>
      <point x="231" y="-268"/>
      <point x="186" y="-325" type="curve"/>
      <point x="241" y="-366" type="line"/>
      <point x="331" y="-274"/>
      <point x="393" y="-84"/>
      <point x="393" y="21" type="curve" smooth="yes"/>
      <point x="393" y="125"/>
      <point x="342" y="207"/>
      <point x="248" y="207" type="curve" smooth="yes"/>
    </contour>
  </outline>
</glyph>
<glyph name="two" format="1">
  <advance width="1100"/>
  <unicode hex="0032"/>
  <outline>
    <contour>
      <point x="248" y="1467"/>
      <point x="103" y="1284"/>
      <point x="103" y="1168" type="curve" smooth="yes"/>
      <point x="103" y="1107"/>
      <point x="136" y="1057"/>
      <point x="197" y="1055" type="curve" smooth="yes"/>
      <point x="271" y="1053"/>
      <point x="297" y="1115"/>
      <point x="297" y="1150" type="curve" smooth="yes"/>
      <point x="297" y="1180"/>
      <point x="287" y="1213"/>
      <point x="260" y="1242" type="curve"/>
      <point x="289" y="1322"/>
      <point x="385" y="1387"/>
      <point x="498" y="1387" type="curve" smooth="yes"/>
      <point x="695" y="1387"/>
      <point x="750" y="1222"/>
      <point x="750" y="1070" type="curve" smooth="yes"/>
      <point x="750" y="935"/>
      <point x="676" y="794"/>
      <point x="498" y="624" type="curve" smooth="yes"/>
      <point x="293" y="429"/>
      <point x="94" y="289"/>
      <point x="94" y="0" type="curve"/>
      <point x="981" y="0" type="line"/>
      <point x="994" y="287" type="line"/>
      <point x="932" y="287" type="line"/>
      <point x="932" y="127"/>
      <point x="789" y="139"/>
      <point x="590" y="145" type="curve" smooth="yes"/>
      <point x="227" y="155" type="line"/>
      <point x="245" y="250"/>
      <point x="372" y="391"/>
      <point x="559" y="544" type="curve" smooth="yes"/>
      <point x="851" y="783"/>
      <point x="961" y="957"/>
      <point x="961" y="1095" type="curve" smooth="yes"/>
      <point x="961" y="1373"/>
      <point x="748" y="1467"/>
      <point x="531" y="1467" type="curve" smooth="yes"/>
    </contour>
  </outline>
</glyph>
<glyph name="three" format="1">
  <advance width="1141"/>
  <unicode hex="0033"/>
  <outline>
    <contour>
      <point x="261" y="1467"/>
      <point x="125" y="1285"/>
      <point x="125" y="1172" type="curve" smooth="yes"/>
      <point x="125" y="1115"/>
      <point x="156" y="1068"/>
      <point x="214" y="1066" type="curve" smooth="yes"/>
      <point x="283" y="1064"/>
      <point x="308" y="1122"/>
      <point x="308" y="1155" type="curve" smooth="yes"/>
      <point x="308" y="1183"/>
      <point x="299" y="1213"/>
      <point x="275" y="1239" type="curve"/>
      <point x="296" y="1307"/>
      <point x="392" y="1387"/>
      <point x="515" y="1387" type="curve" smooth="yes"/>
      <point x="702" y="1387"/>
      <point x="757" y="1261"/>
      <point x="757" y="1093" type="curve" smooth="yes"/>
      <point x="757" y="981"/>
      <point x="689" y="803"/>
      <point x="474" y="803" type="curve" smooth="yes"/>
      <point x="390" y="803" type="line"/>
      <point x="390" y="711" type="line"/>
      <point x="417" y="713"/>
      <point x="443" y="714"/>
      <point x="464" y="714" type="curve" smooth="yes"/>
      <point x="764" y="720"/>
      <point x="828" y="544"/>
      <point x="828" y="365" type="curve" smooth="yes"/>
      <point x="828" y="162"/>
      <point x="702" y="54"/>
      <point x="507" y="54" type="curve" smooth="yes"/>
      <point x="396" y="54"/>
      <point x="285" y="92"/>
      <point x="258" y="184" type="curve"/>
      <point x="270" y="211"/>
      <point x="280" y="238"/>
      <point x="280" y="266" type="curve" smooth="yes"/>
      <point x="280" y="303"/>
      <point x="258" y="363"/>
      <point x="184" y="359" type="curve" smooth="yes"/>
      <point x="123" y="356"/>
      <point x="90" y="307"/>
      <point x="90" y="246" type="curve" smooth="yes"/>
      <point x="90" y="125"/>
      <point x="228" y="-33"/>
      <point x="523" y="-33" type="curve" smooth="yes"/>
      <point x="791" y="-33"/>
      <point x="1039" y="101"/>
      <point x="1039" y="379" type="curve" smooth="yes"/>
      <point x="1039" y="591"/>
      <point x="879" y="740"/>
      <point x="621" y="767" type="curve"/>
      <point x="621" y="769" type="line"/>
      <point x="873" y="846"/>
      <point x="956" y="981"/>
      <point x="956" y="1111" type="curve" smooth="yes"/>
      <point x="956" y="1369"/>
      <point x="761" y="1467"/>
      <point x="543" y="1467" type="curve" smooth="yes"/>
    </contour>
  </outline>
</glyph>
<glyph name="four" format="1">
  <advance width="1110"/>
  <unicode hex="0034"/>
  <outline>
    <contour>
      <point x="765" y="1467" type="line"/>
      <point x="25" y="496" type="line"/>
      <point x="25" y="395" type="line"/>
      <point x="648" y="395" type="line"/>
      <point x="648" y="326" type="line" smooth="yes"/>
      <point x="648" y="176"/>
      <point x="623" y="78"/>
      <point x="484" y="68" type="curve" smooth="yes"/>
      <point x="468" y="68" type="line"/>
      <point x="468" y="0" type="line"/>
      <point x="984" y="0" type="line"/>
      <point x="984" y="84" type="line"/>
      <point x="826" y="78" type="line"/>
      <point x="834" y="119"/>
      <point x="834" y="168"/>
      <point x="834" y="223" type="curve" smooth="yes"/>
      <point x="834" y="395" type="line"/>
      <point x="1041" y="395" type="line"/>
      <point x="1041" y="516" type="line"/>
      <point x="834" y="518" type="line"/>
      <point x="834" y="1467" type="line"/>
    </contour>
    <contour>
      <point x="648" y="522" type="line"/>
      <point x="160" y="528" type="line"/>
      <point x="644" y="1175" type="line"/>
      <point x="648" y="1175" type="line"/>
    </contour>
  </outline>
</glyph>
<glyph name="less" format="1">
  <advance width="1110"/>
  <unicode hex="003C"/>
  <outline>
    <contour>
      <point x="70" y="709" type="line"/>
      <point x="70" y="571" type="line"/>
      <point x="982" y="174" type="line"/>
      <point x="982" y="305" type="line"/>
      <point x="209" y="647" type="line"/>
      <point x="982" y="987" type="line"/>
      <point x="982" y="1114" type="line"/>
    </contour>
  </outline>
</glyph>
<glyph name="at" format="1">
  <advance width="1630"/>
  <unicode hex="0040"/>
  <outline>
    <contour>
      <point x="325" y="1276"/>
      <point x="102" y="870"/>
      <point x="102" y="526" type="curve" smooth="yes"/>
      <point x="102" y="133"/>
      <point x="352" y="-205"/>
      <point x="856" y="-195" type="curve" smooth="yes"/>
      <point x="1071" y="-190"/>
      <point x="1257" y="-119"/>
      <point x="1388" y="33" type="curve"/>
      <point x="1339" y="84" type="line"/>
      <point x="1196" y="-86"/>
      <point x="995" y="-111"/>
      <point x="853" y="-106" type="curve" smooth="yes"/>
      <point x="548" y="-98"/>
      <point x="260" y="94"/>
      <point x="260" y="539" type="curve" smooth="yes"/>
      <point x="260" y="883"/>
      <point x="460" y="1190"/>
      <point x="798" y="1217" type="curve" smooth="yes"/>
      <point x="1136" y="1243"/>
      <point x="1411" y="1061"/>
      <point x="1398" y="567" type="curve" smooth="yes"/>
      <point x="1392" y="326"/>
      <point x="1277" y="180"/>
      <point x="1163" y="205" type="curve" smooth="yes"/>
      <point x="1087" y="221"/>
      <point x="1081" y="332"/>
      <point x="1089" y="438" type="curve" smooth="yes"/>
      <point x="1099" y="573"/>
      <point x="1128" y="774"/>
      <point x="1150" y="961" type="curve"/>
      <point x="1083" y="979"/>
      <point x="993" y="987"/>
      <point x="929" y="987" type="curve" smooth="yes"/>
      <point x="616" y="987"/>
      <point x="448" y="727"/>
      <point x="448" y="428" type="curve" smooth="yes"/>
      <point x="448" y="227"/>
      <point x="550" y="143"/>
      <point x="665" y="143" type="curve" smooth="yes"/>
      <point x="753" y="143"/>
      <point x="876" y="186"/>
      <point x="976" y="498" type="curve"/>
      <point x="980" y="498" type="line"/>
      <point x="952" y="340"/>
      <point x="925" y="168"/>
      <point x="1114" y="135" type="curve" smooth="yes"/>
      <point x="1251" y="111"/>
      <point x="1544" y="221"/>
      <point x="1544" y="651" type="curve" smooth="yes"/>
      <point x="1544" y="979"/>
      <point x="1298" y="1329"/>
      <point x="815" y="1303" type="curve" smooth="yes"/>
    </contour>
    <contour>
      <point x="929" y="926"/>
      <point x="972" y="920"/>
      <point x="1005" y="907" type="curve"/>
      <point x="1003" y="621"/>
      <point x="847" y="221"/>
      <point x="700" y="221" type="curve" smooth="yes"/>
      <point x="630" y="221"/>
      <point x="591" y="309"/>
      <point x="591" y="446" type="curve" smooth="yes"/>
      <point x="591" y="662"/>
      <point x="686" y="926"/>
      <point x="878" y="926" type="curve" smooth="yes"/>
    </contour>
  </outline>
</glyph>
<glyph name="C" format="1">
  <advance width="1432"/>
  <unicode hex="0043"/>
  <outline>
    <contour>
      <point x="328" y="1467"/>
      <point x="94" y="1079"/>
      <point x="94" y="694" type="curve" smooth="yes"/>
      <point x="94" y="287"/>
      <point x="379" y="-33"/>
      <point x="790" y="-33" type="curve" smooth="yes"/>
      <point x="958" y="-33"/>
      <point x="1194" y="23"/>
      <point x="1370" y="266" type="curve"/>
      <point x="1317" y="309" type="line"/>
      <point x="1206" y="156"/>
      <point x="1022" y="74"/>
      <point x="844" y="74" type="curve" smooth="yes"/>
      <point x="541" y="74"/>
      <point x="295" y="338"/>
      <point x="295" y="725" type="curve" smooth="yes"/>
      <point x="295" y="1126"/>
      <point x="528" y="1383"/>
      <point x="819" y="1383" type="curve" smooth="yes"/>
      <point x="1057" y="1383"/>
      <point x="1216" y="1233"/>
      <point x="1245" y="977" type="curve"/>
      <point x="1319" y="977" type="line"/>
      <point x="1319" y="1452" type="line"/>
      <point x="1208" y="1452" type="line"/>
      <point x="1218" y="1342" type="line"/>
      <point x="1092" y="1426"/>
      <point x="959" y="1467"/>
      <point x="805" y="1467" type="curve" smooth="yes"/>
    </contour>
    <contour>
      <point x="797" y="1434" type="move" name="top"/>
    </contour>
    <contour>
      <point x="849" y="0" type="move" name="bottom"/>
    </contour>
  </outline>
</glyph>
<glyph name="E" format="1">
  <advance width="1274"/>
  <unicode hex="0045"/>
  <outline>
    <contour>
      <point x="113" y="1434" type="line"/>
      <point x="113" y="1343" type="line"/>
      <point x="261" y="1352" type="line"/>
      <point x="256" y="1311"/>
      <point x="254" y="1260"/>
      <point x="254" y="1204" type="curve" smooth="yes"/>
      <point x="254" y="319" type="line" smooth="yes"/>
      <point x="254" y="174"/>
      <point x="267" y="74"/>
      <point x="113" y="68" type="curve"/>
      <point x="113" y="0" type="line"/>
      <point x="1170" y="0" type="line"/>
      <point x="1182" y="399" type="line"/>
      <point x="1112" y="399" type="line"/>
      <point x="1112" y="156"/>
      <point x="996" y="84"/>
      <point x="818" y="82" type="curve" smooth="yes"/>
      <point x="426" y="76" type="line"/>
      <point x="431" y="111"/>
      <point x="433" y="162"/>
      <point x="433" y="236" type="curve" smooth="yes"/>
      <point x="433" y="705" type="line"/>
      <point x="582" y="711" type="line" smooth="yes"/>
      <point x="756" y="717"/>
      <point x="826" y="711"/>
      <point x="826" y="530" type="curve"/>
      <point x="893" y="530" type="line"/>
      <point x="893" y="961" type="line"/>
      <point x="802" y="961" type="line"/>
      <point x="817" y="784" type="line"/>
      <point x="433" y="786" type="line"/>
      <point x="433" y="1114" type="line" smooth="yes"/>
      <point x="433" y="1280"/>
      <point x="435" y="1354"/>
      <point x="588" y="1358" type="curve" smooth="yes"/>
      <point x="764" y="1362" type="line" smooth="yes"/>
      <point x="918" y="1366"/>
      <point x="1041" y="1317"/>
      <point x="1041" y="1075" type="curve"/>
      <point x="1108" y="1075" type="line"/>
      <point x="1098" y="1434" type="line"/>
    </contour>
    <contour>
      <point x="1147" y="10" type="move" name="ogonek"/>
    </contour>
    <contour>
      <point x="761" y="0" type="move" name="bottom"/>
    </contour>
    <contour>
      <point x="670" y="1434" type="move" name="top"/>
    </contour>
  </outline>
</glyph>
<glyph name="F" format="1">
  <advance width="1122"/>
  <unicode hex="0046"/>
  <outline>
    <contour>
      <point x="113" y="1434" type="line"/>
      <point x="113" y="1343" type="line"/>
      <point x="261" y="1352" type="line"/>
      <point x="256" y="1311"/>
      <point x="254" y="1260"/>
      <point x="254" y="1204" type="curve" smooth="yes"/>
      <point x="254" y="319" type="line" smooth="yes"/>
      <point x="254" y="174"/>
      <point x="267" y="74"/>
      <point x="113" y="68" type="curve"/>
      <point x="113" y="0" type="line"/>
      <point x="635" y="0" type="line"/>
      <point x="635" y="90" type="line"/>
      <point x="426" y="82" type="line"/>
      <point x="431" y="117"/>
      <point x="433" y="170"/>
      <point x="433" y="244" type="curve" smooth="yes"/>
      <point x="433" y="673" type="line"/>
      <point x="554" y="679" type="line" smooth="yes"/>
      <point x="728" y="688"/>
      <point x="798" y="679"/>
      <point x="798" y="498" type="curve"/>
      <point x="865" y="498" type="line"/>
      <point x="865" y="929" type="line"/>
      <point x="774" y="929" type="line"/>
      <point x="789" y="752" type="line"/>
      <point x="433" y="754" type="line"/>
      <point x="433" y="1106" type="line" smooth="yes"/>
      <point x="433" y="1247"/>
      <point x="421" y="1354"/>
      <point x="574" y="1358" type="curve" smooth="yes"/>
      <point x="723" y="1362" type="line" smooth="yes"/>
      <point x="877" y="1366"/>
      <point x="1006" y="1317"/>
      <point x="1006" y="1075" type="curve"/>
      <point x="1074" y="1075" type="line"/>
      <point x="1063" y="1434" type="line"/>
    </contour>
  </outline>
</glyph>
<glyph name="J" format="1">
  <advance width="764"/>
  <unicode hex="004A"/>
  <outline>
    <contour>
      <point x="158" y="1434" type="line"/>
      <point x="158" y="1343" type="line"/>
      <point x="367" y="1352" type="line"/>
      <point x="367" y="285" type="line" smooth="yes"/>
      <point x="367" y="117"/>
      <point x="327" y="54"/>
      <point x="246" y="51" type="curve" smooth="yes"/>
      <point x="225" y="50"/>
      <point x="182" y="58"/>
      <point x="165" y="83" type="curve"/>
      <point x="172" y="97"/>
      <point x="175" y="116"/>
      <point x="175" y="129" type="curve" smooth="yes"/>
      <point x="175" y="170"/>
      <point x="151" y="223"/>
      <point x="84" y="220" type="curve" smooth="yes"/>
      <point x="25" y="217"/>
      <point x="-4" y="166"/>
      <point x="-4" y="113" type="curve" smooth="yes"/>
      <point x="-4" y="23"/>
      <point x="98" y="-33"/>
      <point x="212" y="-33" type="curve" smooth="yes"/>
      <point x="448" y="-33"/>
      <point x="545" y="115"/>
      <point x="545" y="500" type="curve" smooth="yes"/>
      <point x="545" y="1163" type="line" smooth="yes"/>
      <point x="545" y="1278"/>
      <point x="567" y="1366"/>
      <point x="703" y="1366" type="curve"/>
      <point x="703" y="1434" type="line"/>
    </contour>
    <contour>
      <point x="441" y="1434" type="move" name="top"/>
    </contour>
  </outline>
</glyph>
<glyph name="Q" format="1">
  <advance width="1630"/>
  <unicode hex="0051"/>
  <outline>
    <contour>
      <point x="809" y="-33" type="line"/>
      <point x="940" y="-33"/>
      <point x="1013" y="-166"/>
      <point x="1198" y="-332" type="curve" smooth="yes"/>
      <point x="1325" y="-446"/>
      <point x="1396" y="-446"/>
      <point x="1544" y="-446" type="curve" smooth="yes"/>
      <point x="1609" y="-446" type="line"/>
      <point x="1609" y="-379" type="line"/>
      <point x="1530" y="-379"/>
      <point x="1472" y="-322"/>
      <point x="1282" y="-145" type="curve" smooth="yes"/>
      <point x="1106" y="18"/>
      <point x="1038" y="-23"/>
      <point x="825" y="-14" type="curve"/>
    </contour>
    <component base="O"/>
  </outline>
</glyph>
<glyph name="V" format="1">
  <advance width="1337"/>
  <unicode hex="0056"/>
  <outline>
    <contour>
      <point x="959" y="1434" type="line"/>
      <point x="959" y="1343" type="line"/>
      <point x="1116" y="1352" type="line"/>
      <point x="1100" y="1319"/>
      <point x="1081" y="1270"/>
      <point x="1057" y="1200" type="curve" smooth="yes"/>
      <point x="1014" y="1079"/>
      <point x="950" y="905"/>
      <point x="830" y="563" type="curve" smooth="yes"/>
      <point x="787" y="442"/>
      <point x="758" y="365"/>
      <point x="727" y="270" type="curve"/>
      <point x="723" y="270" type="line"/>
      <point x="690" y="362"/>
      <point x="623" y="512"/>
      <point x="557" y="666" type="curve" smooth="yes"/>
      <point x="483" y="840"/>
      <point x="428" y="981"/>
      <point x="363" y="1143" type="curve" smooth="yes"/>
      <point x="307" y="1278"/>
      <point x="328" y="1356"/>
      <point x="465" y="1364" type="curve"/>
      <point x="467" y="1366" type="line"/>
      <point x="467" y="1434" type="line"/>
      <point x="-8" y="1434" type="line"/>
      <point x="-8" y="1343" type="line"/>
      <point x="107" y="1348" type="line"/>
      <point x="115" y="1286"/>
      <point x="135" y="1208"/>
      <point x="195" y="1069" type="curve" smooth="yes"/>
      <point x="660" y="-20" type="line"/>
      <point x="717" y="-20" type="line"/>
      <point x="1118" y="1079"/>
      <point x="1132" y="1121"/>
      <point x="1148" y="1165" type="curve" smooth="yes"/>
      <point x="1200" y="1313"/>
      <point x="1253" y="1360"/>
      <point x="1374" y="1366" type="curve"/>
      <point x="1374" y="1434" type="line"/>
    </contour>
  </outline>
</glyph>
<glyph name="Z" format="1">
  <advance width="1249"/>
  <unicode hex="005A"/>
  <outline>
    <contour>
      <point x="125" y="1434" type="line"/>
      <point x="113" y="1010" type="line"/>
      <point x="183" y="1010" type="line"/>
      <point x="183" y="1243"/>
      <point x="262" y="1343"/>
      <point x="424" y="1350" type="curve" smooth="yes"/>
      <point x="946" y="1358" type="line"/>
      <point x="895" y="1298"/>
      <point x="854" y="1235"/>
      <point x="815" y="1174" type="curve" smooth="yes"/>
      <point x="477" y="635"/>
      <point x="242" y="309"/>
      <point x="88" y="94" type="curve"/>
      <point x="88" y="0" type="line"/>
      <point x="1139" y="0" type="line"/>
      <point x="1151" y="420" type="line"/>
      <point x="1082" y="420" type="line"/>
      <point x="1082" y="190"/>
      <point x="944" y="86"/>
      <point x="764" y="84" type="curve" smooth="yes"/>
      <point x="266" y="76" type="line"/>
      <point x="309" y="115"/>
      <point x="346" y="158"/>
      <point x="406" y="246" type="curve" smooth="yes"/>
      <point x="1141" y="1362" type="line"/>
      <point x="1141" y="1434" type="line"/>
    </contour>
    <contour>
      <point x="625" y="1434" type="move" name="top"/>
    </contour>
  </outline>
</glyph>
<glyph name="bracketleft" format="1">
  <advance width="735"/>
  <unicode hex="005B"/>
  <outline>
    <contour>
      <point x="164" y="1546" type="line"/>
      <point x="162" y="-522" type="line"/>
      <point x="711" y="-522" type="line"/>
      <point x="711" y="-399" type="line"/>
      <point x="308" y="-393" type="line"/>
      <point x="317" y="1417" type="line"/>
      <point x="707" y="1423" type="line"/>
      <point x="707" y="1546" type="line"/>
    </contour>
  </outline>
</glyph>
<glyph name="asciicircum" format="1">
  <advance width="1686"/>
  <unicode hex="005E"/>
  <outline>
    <contour>
      <point x="754" y="1467" type="line"/>
      <point x="123" y="904" type="line"/>
      <point x="291" y="904" type="line"/>
      <point x="837" y="1394" type="line"/>
      <point x="1382" y="894" type="line"/>
      <point x="1563" y="894" type="line"/>
      <point x="936" y="1467" type="line"/>
    </contour>
  </outline>
</glyph>
<glyph name="underscore" format="1">
  <advance width="1493"/>
  <unicode hex="005F"/>
  <outline>
    <contour>
      <point x="117" y="-227" type="line"/>
      <point x="1376" y="-227" type="line"/>
      <point x="1376" y="-111" type="line"/>
      <point x="117" y="-102" type="line"/>
    </contour>
  </outline>
</glyph>
<glyph name="p" format="1">
  <advance width="1223"/>
  <unicode hex="0070"/>
  <outline>
    <contour>
      <point x="572" y="1057"/>
      <point x="451" y="1007"/>
      <point x="368" y="934" type="curve"/>
      <point x="366" y="982"/>
      <point x="363" y="1017"/>
      <point x="360" y="1044" type="curve"/>
      <point x="300" y="1044" type="line"/>
      <point x="270" y="1016"/>
      <point x="239" y="989"/>
      <point x="59" y="989" type="curve"/>
      <point x="59" y="903" type="line"/>
      <point x="204" y="911" type="line"/>
      <point x="196" y="864"/>
      <point x="196" y="821"/>
      <point x="196" y="778" type="curve" smooth="yes"/>
      <point x="192" y="-211" type="line" smooth="yes"/>
      <point x="190" y="-358"/>
      <point x="196" y="-461"/>
      <point x="71" y="-461" type="curve"/>
      <point x="71" y="-522" type="line"/>
      <point x="489" y="-522" type="line"/>
      <point x="489" y="-438" type="line"/>
      <point x="360" y="-444" type="line"/>
      <point x="368" y="-397"/>
      <point x="368" y="-360"/>
      <point x="368" y="-305" type="curve" smooth="yes"/>
      <point x="369" y="34" type="line"/>
      <point x="438" y="-11"/>
      <point x="518" y="-33"/>
      <point x="614" y="-33" type="curve" smooth="yes"/>
      <point x="890" y="-33"/>
      <point x="1136" y="199"/>
      <point x="1136" y="548" type="curve" smooth="yes"/>
      <point x="1136" y="865"/>
      <point x="924" y="1057"/>
      <point x="686" y="1057" type="curve" smooth="yes"/>
    </contour>
    <contour>
      <point x="836" y="957"/>
      <point x="925" y="738"/>
      <point x="925" y="517" type="curve" smooth="yes"/>
      <point x="925" y="246"/>
      <point x="804" y="49"/>
      <point x="610" y="49" type="curve" smooth="yes"/>
      <point x="521" y="49"/>
      <point x="438" y="78"/>
      <point x="370" y="129" type="curve"/>
      <point x="372" y="778"/>
      <point x="372" y="812"/>
      <point x="371" y="842" type="curve"/>
      <point x="428" y="903"/>
      <point x="518" y="957"/>
      <point x="613" y="957" type="curve" smooth="yes"/>
    </contour>
  </outline>
</glyph>
<glyph name="bar" format="1">
  <advance width="473"/>
  <unicode hex="007C"/>
  <outline>
    <contour>
      <point x="162" y="1556" type="line"/>
      <point x="168" y="-555" type="line"/>
      <point x="307" y="-555" type="line"/>
      <point x="315" y="1556" type="line"/>
    </contour>
  </outline>
</glyph>
<glyph name="section" format="1">
  <advance width="1092"/>
  <unicode hex="00A7"/>
  <outline>
    <contour>
      <point x="267" y="1556"/>
      <point x="168" y="1333"/>
      <point x="173" y="1192" type="curve" smooth="yes"/>
      <point x="176" y="1096"/>
      <point x="207" y="1022"/>
      <point x="259" y="962" type="curve"/>
      <point x="145" y="867"/>
      <point x="78" y="737"/>
      <point x="78" y="622" type="curve" smooth="yes"/>
      <point x="78" y="170"/>
      <point x="779" y="137"/>
      <point x="779" y="-172" type="curve" smooth="yes"/>
      <point x="779" y="-262"/>
      <point x="715" y="-388"/>
      <point x="527" y="-388" type="curve" smooth="yes"/>
      <point x="420" y="-388"/>
      <point x="327" y="-323"/>
      <point x="321" y="-255" type="curve"/>
      <point x="336" y="-237"/>
      <point x="344" y="-206"/>
      <point x="344" y="-192" type="curve" smooth="yes"/>
      <point x="344" y="-148"/>
      <point x="322" y="-98"/>
      <point x="257" y="-100" type="curve" smooth="yes"/>
      <point x="203" y="-101"/>
      <point x="170" y="-154"/>
      <point x="170" y="-205" type="curve" smooth="yes"/>
      <point x="170" y="-328"/>
      <point x="295" y="-467"/>
      <point x="535" y="-467" type="curve" smooth="yes"/>
      <point x="826" y="-467"/>
      <point x="920" y="-240"/>
      <point x="920" y="-109" type="curve" smooth="yes"/>
      <point x="920" y="-13"/>
      <point x="886" y="59"/>
      <point x="835" y="119" type="curve"/>
      <point x="949" y="214"/>
      <point x="1016" y="345"/>
      <point x="1016" y="461" type="curve" smooth="yes"/>
      <point x="1016" y="913"/>
      <point x="314" y="946"/>
      <point x="314" y="1255" type="curve" smooth="yes"/>
      <point x="314" y="1345"/>
      <point x="377" y="1478"/>
      <point x="566" y="1478" type="curve" smooth="yes"/>
      <point x="670" y="1478"/>
      <point x="751" y="1428"/>
      <point x="778" y="1360" type="curve"/>
      <point x="759" y="1343"/>
      <point x="753" y="1307"/>
      <point x="753" y="1291" type="curve" smooth="yes"/>
      <point x="753" y="1259"/>
      <point x="774" y="1205"/>
      <point x="839" y="1207" type="curve" smooth="yes"/>
      <point x="893" y="1208"/>
      <point x="924" y="1251"/>
      <point x="924" y="1302" type="curve" smooth="yes"/>
      <point x="924" y="1425"/>
      <point x="777" y="1556"/>
      <point x="558" y="1556" type="curve" smooth="yes"/>
    </contour>
    <contour>
      <point x="506" y="742"/>
      <point x="861" y="677"/>
      <point x="861" y="385" type="curve" smooth="yes"/>
      <point x="861" y="309"/>
      <point x="837" y="225"/>
      <point x="790" y="165" type="curve"/>
      <point x="591" y="340"/>
      <point x="236" y="404"/>
      <point x="236" y="698" type="curve" smooth="yes"/>
      <point x="236" y="772"/>
      <point x="259" y="855"/>
      <point x="306" y="916" type="curve"/>
    </contour>
  </outline>
</glyph>
<glyph name="macron" format="1">
  <advance width="727"/>
  <unicode hex="00AF"/>
  <outline>
    <contour>
      <point x="92" y="1434" type="line"/>
      <point x="92" y="1311" type="line"/>
      <point x="635" y="1319" type="line"/>
      <point x="635" y="1434" type="line"/>
    </contour>
    <contour>
      <point x="364" y="1024" type="move" name="_top"/>
    </contour>
  </outline>
</glyph>
<glyph name="uni00B5" format="1">
  <advance width="1257"/>
  <unicode hex="00B5"/>
  <outline>
    <contour>
      <point x="832" y="1024" type="line"/>
      <point x="832" y="218" type="line"/>
      <point x="779" y="138"/>
      <point x="687" y="72"/>
      <point x="586" y="72" type="curve" smooth="yes"/>
      <point x="408" y="72"/>
      <point x="367" y="250"/>
      <point x="367" y="483" type="curve" smooth="yes"/>
      <point x="367" y="1024" type="line"/>
      <point x="195" y="1024" type="line"/>
      <point x="193" y="-355" type="line" smooth="yes"/>
      <point x="193" y="-464"/>
      <point x="222" y="-532"/>
      <point x="298" y="-532" type="curve" smooth="yes"/>
      <point x="361" y="-532"/>
      <point x="392" y="-474"/>
      <point x="392" y="-421" type="curve" smooth="yes"/>
      <point x="392" y="-325"/>
      <point x="336" y="-315"/>
      <point x="293" y="133" type="curve"/>
      <point x="347" y="30"/>
      <point x="423" y="-33"/>
      <point x="525" y="-33" type="curve" smooth="yes"/>
      <point x="642" y="-33"/>
      <point x="763" y="34"/>
      <point x="841" y="115" type="curve"/>
      <point x="857" y="50"/>
      <point x="898" y="-12"/>
      <point x="998" y="-12" type="curve" smooth="yes"/>
      <point x="1092" y="-12"/>
      <point x="1170" y="53"/>
      <point x="1205" y="102" type="curve"/>
      <point x="1182" y="133" type="line"/>
      <point x="1145" y="106"/>
      <point x="1121" y="98"/>
      <point x="1096" y="98" type="curve" smooth="yes"/>
      <point x="1039" y="98"/>
      <point x="1004" y="147"/>
      <point x="1004" y="289" type="curve" smooth="yes"/>
      <point x="1006" y="1024" type="line"/>
    </contour>
  </outline>
</glyph>
<glyph name="cedilla" format="1">
  <advance width="598"/>
  <unicode hex="00B8"/>
  <outline>
    <contour>
      <point x="170" y="16" type="line"/>
      <point x="111" y="-204" type="line"/>
      <point x="180" y="-238" type="line"/>
      <point x="238" y="-198"/>
      <point x="338" y="-187"/>
      <point x="338" y="-269" type="curve" smooth="yes"/>
      <point x="338" y="-349"/>
      <point x="231" y="-400"/>
      <point x="92" y="-425" type="curve"/>
      <point x="104" y="-494" type="line"/>
      <point x="244" y="-474"/>
      <point x="506" y="-417"/>
      <point x="506" y="-251" type="curve" smooth="yes"/>
      <point x="506" y="-169"/>
      <point x="453" y="-116"/>
      <point x="369" y="-116" type="curve" smooth="yes"/>
      <point x="322" y="-116"/>
      <point x="268" y="-128"/>
      <point x="229" y="-152" type="curve"/>
      <point x="285" y="16" type="line"/>
    </contour>
    <contour>
      <point x="299" y="0" type="move" name="_bottom"/>
    </contour>
  </outline>
</glyph>
<glyph name="onesuperior" format="1">
  <advance width="580"/>
  <unicode hex="00B9"/>
  <outline>
    <contour>
      <point x="320" y="1467" type="line"/>
      <point x="92" y="1301" type="line"/>
      <point x="124" y="1243" type="line"/>
      <point x="251" y="1319" type="line"/>
      <point x="256" y="1319" type="line"/>
      <point x="256" y="825" type="line" smooth="yes"/>
      <point x="256" y="741"/>
      <point x="239" y="674"/>
      <point x="155" y="674" type="curve"/>
      <point x="155" y="616" type="line"/>
      <point x="473" y="616" type="line"/>
      <point x="473" y="686" type="line"/>
      <point x="369" y="682" type="line"/>
      <point x="372" y="704"/>
      <point x="373" y="731"/>
      <point x="373" y="762" type="curve" smooth="yes"/>
      <point x="371" y="1467" type="line"/>
    </contour>
  </outline>
</glyph>
<glyph name="guillemotright" format="1">
  <advance width="1085"/>
  <unicode hex="00BB"/>
  <outline>
    <contour>
      <point x="400" y="1058" type="line"/>
      <point x="799" y="572" type="line"/>
      <point x="799" y="568" type="line"/>
      <point x="396" y="50" type="line"/>
      <point x="459" y="-15" type="line"/>
      <point x="1020" y="560" type="line"/>
      <point x="1020" y="568" type="line"/>
      <point x="465" y="1123" type="line"/>
    </contour>
    <contour>
      <point x="117" y="890" type="line"/>
      <point x="361" y="554" type="line"/>
      <point x="361" y="550" type="line"/>
      <point x="113" y="218" type="line"/>
      <point x="178" y="157" type="line"/>
      <point x="584" y="556" type="line"/>
      <point x="584" y="562" type="line"/>
      <point x="183" y="951" type="line"/>
    </contour>
  </outline>
</glyph>
<glyph name="Eth" format="1">
  <advance width="1528"/>
  <unicode hex="00D0"/>
  <outline>
    <contour>
      <point x="39" y="772" type="line"/>
      <point x="39" y="686" type="line"/>
      <point x="804" y="686" type="line"/>
      <point x="804" y="772" type="line"/>
    </contour>
    <component base="D" xOffset="2"/>
  </outline>
</glyph>
<glyph name="eth" format="1">
  <advance width="1145"/>
  <unicode hex="00F0"/>
  <outline>
    <contour>
      <point x="485" y="1494" type="line"/>
      <point x="404" y="1528"/>
      <point x="317" y="1551"/>
      <point x="220" y="1556" type="curve"/>
      <point x="211" y="1470" type="line"/>
      <point x="287" y="1464"/>
      <point x="356" y="1443"/>
      <point x="418" y="1415" type="curve"/>
      <point x="299" y="1274" type="line"/>
      <point x="373" y="1212" type="line"/>
      <point x="498" y="1370" type="line"/>
      <point x="681" y="1250"/>
      <point x="789" y="1045"/>
      <point x="829" y="881" type="curve"/>
      <point x="825" y="881" type="line"/>
      <point x="760" y="985"/>
      <point x="629" y="1020"/>
      <point x="526" y="1016" type="curve" smooth="yes"/>
      <point x="252" y="1006"/>
      <point x="88" y="745"/>
      <point x="88" y="455" type="curve" smooth="yes"/>
      <point x="88" y="152"/>
      <point x="285" y="-33"/>
      <point x="530" y="-33" type="curve" smooth="yes"/>
      <point x="878" y="-33"/>
      <point x="1030" y="233"/>
      <point x="1028" y="557" type="curve" smooth="yes"/>
      <point x="1026" y="938"/>
      <point x="859" y="1289"/>
      <point x="565" y="1455" type="curve"/>
      <point x="655" y="1569" type="line"/>
      <point x="596" y="1624" type="line"/>
    </contour>
    <contour>
      <point x="786" y="922"/>
      <point x="848" y="659"/>
      <point x="846" y="469" type="curve" smooth="yes"/>
      <point x="844" y="190"/>
      <point x="713" y="49"/>
      <point x="563" y="49" type="curve" smooth="yes"/>
      <point x="409" y="49"/>
      <point x="293" y="207"/>
      <point x="293" y="498" type="curve" smooth="yes"/>
      <point x="293" y="735"/>
      <point x="395" y="940"/>
      <point x="579" y="932" type="curve" smooth="yes"/>
    </contour>
  </outline>
</glyph>
<glyph name="oslash" format="1">
  <advance width="1198"/>
  <unicode hex="00F8"/>
  <outline>
    <contour>
      <point x="164" y="-98" type="line"/>
      <point x="240" y="-154" type="line"/>
      <point x="1051" y="1094" type="line"/>
      <point x="954" y="1157" type="line"/>
    </contour>
    <component base="o"/>
  </outline>
</glyph>
<glyph name="Lslash" format="1">
  <advance width="1184"/>
  <unicode hex="0141"/>
  <outline>
    <contour>
      <point x="98" y="582" type="line"/>
      <point x="98" y="467" type="line"/>
      <point x="799" y="986" type="line"/>
      <point x="799" y="1097" type="line"/>
    </contour>
    <component base="L" xOffset="-1"/>
  </outline>
</glyph>
<glyph name="oe" format="1">
  <advance width="1808"/>
  <unicode hex="0153"/>
  <outline>
    <contour>
      <point x="1152" y="1057"/>
      <point x="1019" y="962"/>
      <point x="943" y="840" type="curve"/>
      <point x="941" y="840" type="line"/>
      <point x="855" y="979"/>
      <point x="731" y="1057"/>
      <point x="567" y="1057" type="curve" smooth="yes"/>
      <point x="276" y="1057"/>
      <point x="84" y="811"/>
      <point x="84" y="487" type="curve" smooth="yes"/>
      <point x="84" y="184"/>
      <point x="281" y="-33"/>
      <point x="567" y="-33" type="curve" smooth="yes"/>
      <point x="723" y="-33"/>
      <point x="846" y="49"/>
      <point x="926" y="176" type="curve"/>
      <point x="928" y="176" type="line"/>
      <point x="1003" y="39"/>
      <point x="1146" y="-33"/>
      <point x="1307" y="-33" type="curve" smooth="yes"/>
      <point x="1446" y="-33"/>
      <point x="1616" y="31"/>
      <point x="1728" y="201" type="curve"/>
      <point x="1677" y="242" type="line"/>
      <point x="1610" y="145"/>
      <point x="1483" y="72"/>
      <point x="1356" y="72" type="curve" smooth="yes"/>
      <point x="1124" y="72"/>
      <point x="1038" y="276"/>
      <point x="1038" y="590" type="curve"/>
      <point x="1706" y="602" type="line"/>
      <point x="1706" y="907"/>
      <point x="1544" y="1057"/>
      <point x="1317" y="1057" type="curve" smooth="yes"/>
    </contour>
    <contour>
      <point x="760" y="979"/>
      <point x="838" y="764"/>
      <point x="848" y="508" type="curve"/>
      <point x="848" y="293"/>
      <point x="806" y="49"/>
      <point x="581" y="49" type="curve" smooth="yes"/>
      <point x="372" y="49"/>
      <point x="293" y="293"/>
      <point x="293" y="547" type="curve" smooth="yes"/>
      <point x="293" y="770"/>
      <point x="364" y="979"/>
      <point x="569" y="979" type="curve" smooth="yes"/>
    </contour>
    <contour>
      <point x="1462" y="974"/>
      <point x="1510" y="832"/>
      <point x="1513" y="676" type="curve"/>
      <point x="1044" y="676" type="line"/>
      <point x="1074" y="873"/>
      <point x="1160" y="980"/>
      <point x="1307" y="977" type="curve" smooth="yes"/>
    </contour>
  </outline>
</glyph>
<glyph name="caron" format="1">
  <advance width="819"/>
  <unicode hex="02C7"/>
  <outline>
    <contour>
      <point x="412" y="1350" type="line"/>
      <point x="408" y="1350" type="line"/>
      <point x="147" y="1573" type="line"/>
      <point x="92" y="1507" type="line"/>
      <point x="397" y="1174" type="line"/>
      <point x="401" y="1174" type="line"/>
      <point x="727" y="1518" type="line"/>
      <point x="676" y="1577" type="line"/>
    </contour>
    <contour>
      <point x="410" y="1024" type="move" name="_top"/>
    </contour>
  </outline>
</glyph>
<glyph name="dotaccent" format="1">
  <advance width="406"/>
  <unicode hex="02D9"/>
  <outline>
    <component base="period" xOffset="-27" yOffset="1278" xScale="0.92" yScale="0.92"/>
    <contour>
      <point x="203" y="1024" type="move" name="_top"/>
    </contour>
  </outline>
</glyph>
<glyph name="Dje-cy" format="1">
  <advance width="1558"/>
  <unicode hex="0402"/>
  <outline>
    <contour>
      <point x="57" y="1434" type="line"/>
      <point x="45" y="1001" type="line"/>
      <point x="121" y="1001" type="line"/>
      <point x="121" y="1243"/>
      <point x="184" y="1355"/>
      <point x="356" y="1356" type="curve" smooth="yes"/>
      <point x="568" y="1357" type="line"/>
      <point x="565" y="319" type="line" smooth="yes"/>
      <point x="565" y="180"/>
      <point x="579" y="74"/>
      <point x="426" y="68" type="curve"/>
      <point x="426" y="0" type="line"/>
      <point x="857" y="0" type="line"/>
      <point x="857" y="90" type="line"/>
      <point x="737" y="82" type="line"/>
      <point x="741" y="117"/>
      <point x="743" y="170"/>
      <point x="743" y="244" type="curve" smooth="yes"/>
      <point x="746" y="1359" type="line"/>
      <point x="919" y="1360" type="line" smooth="yes"/>
      <point x="1130" y="1361"/>
      <point x="1182" y="1243"/>
      <point x="1186" y="1001" type="curve"/>
      <point x="1263" y="1001" type="line"/>
      <point x="1251" y="1434" type="line"/>
    </contour>
    <contour>
      <point x="916" y="874"/>
      <point x="789" y="844"/>
      <point x="702" y="797" type="curve"/>
      <point x="702" y="697" type="line"/>
      <point x="770" y="739"/>
      <point x="865" y="770"/>
      <point x="971" y="770" type="curve" smooth="yes"/>
      <point x="1165" y="771"/>
      <point x="1295" y="677"/>
      <point x="1295" y="428" type="curve" smooth="yes"/>
      <point x="1295" y="228"/>
      <point x="1261" y="62"/>
      <point x="1200" y="62" type="curve" smooth="yes"/>
      <point x="1185" y="62"/>
      <point x="1175" y="64"/>
      <point x="1166" y="71" type="curve"/>
      <point x="1174" y="90"/>
      <point x="1177" y="103"/>
      <point x="1177" y="122" type="curve" smooth="yes"/>
      <point x="1177" y="155"/>
      <point x="1155" y="211"/>
      <point x="1078" y="210" type="curve" smooth="yes"/>
      <point x="1021" y="209"/>
      <point x="978" y="169"/>
      <point x="978" y="101" type="curve" smooth="yes"/>
      <point x="978" y="23"/>
      <point x="1044" y="-23"/>
      <point x="1130" y="-23" type="curve" smooth="yes"/>
      <point x="1324" y="-23"/>
      <point x="1464" y="182"/>
      <point x="1464" y="445" type="curve" smooth="yes"/>
      <point x="1464" y="718"/>
      <point x="1341" y="874"/>
      <point x="1041" y="874" type="curve" smooth="yes"/>
    </contour>
  </outline>
</glyph>
<glyph name="Ushort-cy" format="1">
  <advance width="1250"/>
  <unicode hex="040E"/>
  <outline>
    <contour>
      <point x="831" y="1839"/>
      <point x="811" y="1777"/>
      <point x="811" y="1746" type="curve" smooth="yes"/>
      <point x="811" y="1720"/>
      <point x="818" y="1688"/>
      <point x="833" y="1663" type="curve"/>
      <point x="795" y="1624"/>
      <point x="750" y="1612"/>
      <point x="679" y="1612" type="curve" smooth="yes"/>
      <point x="608" y="1612"/>
      <point x="563" y="1624"/>
      <point x="525" y="1663" type="curve"/>
      <point x="540" y="1688"/>
      <point x="547" y="1720"/>
      <point x="547" y="1746" type="curve" smooth="yes"/>
      <point x="547" y="1777"/>
      <point x="527" y="1839"/>
      <point x="452" y="1837" type="curve" smooth="yes"/>
      <point x="396" y="1836"/>
      <point x="363" y="1786"/>
      <point x="363" y="1732" type="curve" smooth="yes"/>
      <point x="363" y="1612"/>
      <point x="506" y="1537"/>
      <point x="679" y="1537" type="curve" smooth="yes"/>
      <point x="852" y="1537"/>
      <point x="995" y="1612"/>
      <point x="995" y="1732" type="curve" smooth="yes"/>
      <point x="995" y="1786"/>
      <point x="962" y="1836"/>
      <point x="906" y="1837" type="curve" smooth="yes"/>
    </contour>
    <component base="U-cy"/>
  </outline>
</glyph>
<glyph name="Ii-cy" format="1">
  <advance width="1618"/>
  <unicode hex="0418"/>
  <outline>
    <contour>
      <point x="292" y="166" type="line"/>
      <point x="357" y="106" type="line"/>
      <point x="1295" y="1277" type="line"/>
      <point x="1237" y="1333" type="line"/>
    </contour>
    <contour>
      <point x="113" y="1434" type="line"/>
      <point x="113" y="1343" type="line"/>
      <point x="261" y="1352" type="line"/>
      <point x="256" y="1311"/>
      <point x="254" y="1260"/>
      <point x="254" y="1204" type="curve" smooth="yes"/>
      <point x="254" y="319" type="line" smooth="yes"/>
      <point x="254" y="174"/>
      <point x="267" y="74"/>
      <point x="113" y="68" type="curve"/>
      <point x="113" y="0" type="line"/>
      <point x="574" y="0" type="line"/>
      <point x="574" y="90" type="line"/>
      <point x="426" y="82" type="line"/>
      <point x="431" y="117"/>
      <point x="433" y="170"/>
      <point x="433" y="244" type="curve" smooth="yes"/>
      <point x="433" y="1114" type="line" smooth="yes"/>
      <point x="433" y="1260"/>
      <point x="420" y="1360"/>
      <point x="574" y="1366" type="curve"/>
      <point x="574" y="1434" type="line"/>
    </contour>
    <contour>
      <point x="1044" y="1434" type="line"/>
      <point x="1044" y="1343" type="line"/>
      <point x="1192" y="1352" type="line"/>
      <point x="1188" y="1311"/>
      <point x="1186" y="1260"/>
      <point x="1186" y="1204" type="curve" smooth="yes"/>
      <point x="1186" y="319" type="line" smooth="yes"/>
      <point x="1186" y="174"/>
      <point x="1198" y="74"/>
      <point x="1044" y="68" type="curve"/>
      <point x="1044" y="0" type="line"/>
      <point x="1505" y="0" type="line"/>
      <point x="1505" y="90" type="line"/>
      <point x="1358" y="82" type="line"/>
      <point x="1362" y="117"/>
      <point x="1364" y="170"/>
      <point x="1364" y="244" type="curve" smooth="yes"/>
      <point x="1364" y="1114" type="line" smooth="yes"/>
      <point x="1364" y="1260"/>
      <point x="1352" y="1360"/>
      <point x="1505" y="1366" type="curve"/>
      <point x="1505" y="1434" type="line"/>
    </contour>
  </outline>
</glyph>
<glyph name="El-cy" format="1">
  <advance width="1432"/>
  <unicode hex="041B"/>
  <outline>
    <contour>
      <point x="308" y="1434" type="line"/>
      <point x="308" y="1343" type="line"/>
      <point x="456" y="1352" type="line"/>
      <point x="1001" y="1353" type="line"/>
      <point x="1001" y="319" type="line" smooth="yes"/>
      <point x="1001" y="174"/>
      <point x="1013" y="74"/>
      <point x="859" y="68" type="curve"/>
      <point x="859" y="0" type="line"/>
      <point x="1320" y="0" type="line"/>
      <point x="1320" y="90" type="line"/>
      <point x="1173" y="82" type="line"/>
      <point x="1177" y="117"/>
      <point x="1179" y="170"/>
      <point x="1179" y="244" type="curve" smooth="yes"/>
      <point x="1179" y="1114" type="line" smooth="yes"/>
      <point x="1179" y="1260"/>
      <point x="1167" y="1360"/>
      <point x="1320" y="1366" type="curve"/>
      <point x="1320" y="1434" type="line"/>
    </contour>
    <contour>
      <point x="499" y="1434" type="line"/>
      <point x="499" y="1047" type="line" smooth="yes"/>
      <point x="499" y="364"/>
      <point x="343" y="51"/>
      <point x="229" y="51" type="curve" smooth="yes"/>
      <point x="216" y="51"/>
      <point x="206" y="56"/>
      <point x="194" y="67" type="curve"/>
      <point x="210" y="84"/>
      <point x="216" y="97"/>
      <point x="216" y="122" type="curve" smooth="yes"/>
      <point x="216" y="163"/>
      <point x="182" y="217"/>
      <point x="115" y="214" type="curve" smooth="yes"/>
      <point x="56" y="211"/>
      <point x="14" y="165"/>
      <point x="14" y="106" type="curve" smooth="yes"/>
      <point x="14" y="20"/>
      <point x="104" y="-33"/>
      <point x="203" y="-33" type="curve" smooth="yes"/>
      <point x="490" y="-33"/>
      <point x="599" y="593"/>
      <point x="597" y="1191" type="curve" smooth="yes"/>
      <point x="597" y="1434" type="line"/>
    </contour>
    <contour>
      <point x="536" y="1352" type="line"/>
      <point x="523" y="1289" type="line"/>
      <point x="597" y="1236" type="line"/>
      <point x="602" y="1305"/>
      <point x="641" y="1353"/>
      <point x="735" y="1353" type="curve"/>
    </contour>
  </outline>
</glyph>
<glyph name="Tse-cy" format="1">
  <advance width="1520"/>
  <unicode hex="0426"/>
  <outline>
    <contour>
      <point x="1425" y="91" type="line"/>
      <point x="1207" y="0" type="line"/>
      <point x="1342" y="0"/>
      <point x="1370" y="-160"/>
      <point x="1370" y="-364" type="curve"/>
      <point x="1455" y="-364" type="line"/>
      <point x="1455" y="92" type="line"/>
    </contour>
    <contour>
      <point x="1425" y="1434" type="line"/>
      <point x="964" y="1434" type="line"/>
      <point x="964" y="1344" type="line"/>
      <point x="1112" y="1352" type="line"/>
      <point x="1107" y="1317"/>
      <point x="1105" y="1264"/>
      <point x="1105" y="1190" type="curve" smooth="yes"/>
      <point x="1105" y="251.626" type="line" smooth="yes"/>
      <point x="1102.85" y="156.153"/>
      <point x="1085.53" y="92.7734"/>
      <point x="972.797" y="88.2321" type="curve" smooth="yes"/>
      <point x="432" y="81" type="line"/>
      <point x="432" y="1115" type="line" smooth="yes"/>
      <point x="432" y="1260"/>
      <point x="420" y="1360"/>
      <point x="574" y="1366" type="curve"/>
      <point x="574" y="1434" type="line"/>
      <point x="113" y="1434" type="line"/>
      <point x="113" y="1344" type="line"/>
      <point x="260" y="1352" type="line"/>
      <point x="256" y="1317"/>
      <point x="254" y="1264"/>
      <point x="254" y="1190" type="curve" smooth="yes"/>
      <point x="254" y="320" type="line" smooth="yes"/>
      <point x="254" y="174"/>
      <point x="266" y="74"/>
      <point x="113" y="68" type="curve"/>
      <point x="113" y="0" type="line"/>
      <point x="1425" y="0" type="line"/>
      <point x="1425" y="91" type="line"/>
      <point x="1277" y="82" type="line"/>
      <point x="1282" y="123"/>
      <point x="1284" y="174"/>
      <point x="1284" y="230" type="curve" smooth="yes"/>
      <point x="1284" y="1115" type="line" smooth="yes"/>
      <point x="1284" y="1260"/>
      <point x="1271" y="1360"/>
      <point x="1425" y="1366" type="curve"/>
    </contour>
  </outline>
</glyph>
<glyph name="Yeru-cy" format="1">
  <advance width="1840"/>
  <unicode hex="042B"/>
  <outline>
    <contour>
      <point x="113" y="1434" type="line"/>
      <point x="113" y="1343" type="line"/>
      <point x="261" y="1352" type="line"/>
      <point x="256" y="1311"/>
      <point x="254" y="1260"/>
      <point x="254" y="1204" type="curve" smooth="yes"/>
      <point x="254" y="319" type="line" smooth="yes"/>
      <point x="254.528" y="171.062"/>
      <point x="263.301" y="71.904"/>
      <point x="113" y="68" type="curve"/>
      <point x="113" y="0" type="line"/>
      <point x="711" y="0" type="line" smooth="yes"/>
      <point x="958" y="0"/>
      <point x="1164" y="149"/>
      <point x="1164" y="437" type="curve" smooth="yes"/>
      <point x="1164" y="678"/>
      <point x="1018" y="852"/>
      <point x="598" y="839" type="curve" smooth="yes"/>
      <point x="433" y="834" type="line"/>
      <point x="433" y="1114" type="line" smooth="yes"/>
      <point x="433" y="1260"/>
      <point x="420" y="1360"/>
      <point x="574" y="1366" type="curve"/>
      <point x="574" y="1434" type="line"/>
    </contour>
    <contour>
      <point x="800" y="761"/>
      <point x="966" y="689"/>
      <point x="966" y="429" type="curve" smooth="yes"/>
      <point x="966" y="184"/>
      <point x="824" y="78"/>
      <point x="643" y="78" type="curve" smooth="yes"/>
      <point x="617" y="78"/>
      <point x="490" y="76"/>
      <point x="426" y="82" type="curve"/>
      <point x="431" y="117"/>
      <point x="433" y="168"/>
      <point x="433" y="242" type="curve" smooth="yes"/>
      <point x="433" y="755" type="line"/>
      <point x="498" y="759"/>
      <point x="562" y="761"/>
      <point x="643" y="761" type="curve" smooth="yes"/>
    </contour>
    <contour>
      <point x="1267" y="1434" type="line"/>
      <point x="1267" y="1343" type="line"/>
      <point x="1415" y="1352" type="line"/>
      <point x="1410" y="1311"/>
      <point x="1408" y="1260"/>
      <point x="1408" y="1204" type="curve" smooth="yes"/>
      <point x="1408" y="319" type="line" smooth="yes"/>
      <point x="1408" y="174"/>
      <point x="1421" y="74"/>
      <point x="1267" y="68" type="curve"/>
      <point x="1267" y="0" type="line"/>
      <point x="1728" y="0" type="line"/>
      <point x="1728" y="90" type="line"/>
      <point x="1580" y="82" type="line"/>
      <point x="1585" y="117"/>
      <point x="1587" y="170"/>
      <point x="1587" y="244" type="curve" smooth="yes"/>
      <point x="1587" y="1114" type="line" smooth="yes"/>
      <point x="1587" y="1260"/>
      <point x="1574" y="1360"/>
      <point x="1728" y="1366" type="curve"/>
      <point x="1728" y="1434" type="line"/>
    </contour>
  </outline>
</glyph>
<glyph name="ve-cy" format="1">
  <advance width="1068"/>
  <unicode hex="0432"/>
  <outline>
    <contour>
      <point x="421" y="1026"/>
      <point x="200" y="1025"/>
      <point x="93" y="1024" type="curve"/>
      <point x="93" y="940" type="line"/>
      <point x="222" y="946" type="line"/>
      <point x="216" y="914"/>
      <point x="213" y="877"/>
      <point x="213" y="828" type="curve" smooth="yes"/>
      <point x="213" y="236" type="line" smooth="yes"/>
      <point x="213" y="128"/>
      <point x="190" y="64"/>
      <point x="90" y="61" type="curve"/>
      <point x="90" y="0" type="line"/>
      <point x="658" y="0" type="line" smooth="yes"/>
      <point x="841" y="0"/>
      <point x="1008" y="107"/>
      <point x="1008" y="290" type="curve" smooth="yes"/>
      <point x="1008" y="431"/>
      <point x="909" y="531"/>
      <point x="725" y="538" type="curve"/>
      <point x="725" y="541" type="line"/>
      <point x="880" y="576"/>
      <point x="951" y="680"/>
      <point x="952" y="791" type="curve" smooth="yes"/>
      <point x="954" y="948"/>
      <point x="820" y="1026"/>
      <point x="628" y="1026" type="curve" smooth="yes"/>
    </contour>
    <contour>
      <point x="693" y="486"/>
      <point x="812" y="429"/>
      <point x="812" y="285" type="curve" smooth="yes"/>
      <point x="812" y="142"/>
      <point x="710" y="81"/>
      <point x="559" y="81" type="curve" smooth="yes"/>
      <point x="540" y="81"/>
      <point x="430" y="79"/>
      <point x="384" y="84" type="curve"/>
      <point x="387" y="109"/>
      <point x="389" y="145"/>
      <point x="389" y="198" type="curve" smooth="yes"/>
      <point x="389" y="481" type="line"/>
      <point x="435" y="484"/>
      <point x="501" y="486"/>
      <point x="559" y="486" type="curve" smooth="yes"/>
    </contour>
    <contour>
      <point x="662" y="952"/>
      <point x="761" y="921"/>
      <point x="764" y="780" type="curve" smooth="yes"/>
      <point x="766" y="679"/>
      <point x="710" y="565"/>
      <point x="542" y="562" type="curve" smooth="yes"/>
      <point x="389" y="559" type="line"/>
      <point x="389" y="810" type="line" smooth="yes"/>
      <point x="389" y="927"/>
      <point x="453" y="952"/>
      <point x="551" y="952" type="curve" smooth="yes"/>
    </contour>
  </outline>
</glyph>
<glyph name="ge-cy" format="1">
  <advance width="896"/>
  <unicode hex="0433"/>
  <outline>
    <contour>
      <point x="93" y="1024" type="line"/>
      <point x="93" y="940" type="line"/>
      <point x="220.992" y="945.953" type="line"/>
      <point x="213" y="898.975"/>
      <point x="213" y="861.982"/>
      <point x="213" y="807" type="curve" smooth="yes"/>
      <point x="213" y="686" type="line"/>
      <point x="213.511" y="311" type="line" smooth="yes"/>
      <point x="211" y="164"/>
      <point x="215" y="61"/>
      <point x="90" y="61" type="curve"/>
      <point x="90" y="0" type="line"/>
      <point x="508" y="0" type="line"/>
      <point x="508" y="84" type="line"/>
      <point x="379" y="78" type="line"/>
      <point x="387" y="125"/>
      <point x="387" y="162"/>
      <point x="387" y="217" type="curve" smooth="yes"/>
      <point x="389" y="713" type="line" smooth="yes"/>
      <point x="389" y="860"/>
      <point x="394" y="942"/>
      <point x="514" y="942" type="curve" smooth="yes"/>
      <point x="735" y="942"/>
      <point x="789" y="887"/>
      <point x="793" y="715" type="curve"/>
      <point x="871" y="715" type="line"/>
      <point x="862" y="1024" type="line"/>
    </contour>
  </outline>
</glyph>
<glyph name="iishort-cy" format="1">
  <advance width="1284"/>
  <unicode hex="0439"/>
  <outline>
    <contour>
      <point x="785" y="1456"/>
      <point x="767" y="1400"/>
      <point x="767" y="1371" type="curve" smooth="yes"/>
      <point x="767" y="1348"/>
      <point x="773" y="1319"/>
      <point x="787" y="1296" type="curve"/>
      <point x="771" y="1267"/>
      <point x="702" y="1257"/>
      <point x="647" y="1257" type="curve" smooth="yes"/>
      <point x="592" y="1257"/>
      <point x="523" y="1267"/>
      <point x="507" y="1296" type="curve"/>
      <point x="521" y="1319"/>
      <point x="527" y="1348"/>
      <point x="527" y="1371" type="curve" smooth="yes"/>
      <point x="527" y="1400"/>
      <point x="509" y="1456"/>
      <point x="441" y="1454" type="curve" smooth="yes"/>
      <point x="390" y="1453"/>
      <point x="360" y="1408"/>
      <point x="360" y="1359" type="curve" smooth="yes"/>
      <point x="360" y="1250"/>
      <point x="490" y="1182"/>
      <point x="647" y="1182" type="curve" smooth="yes"/>
      <point x="804" y="1182"/>
      <point x="934" y="1250"/>
      <point x="934" y="1359" type="curve" smooth="yes"/>
      <point x="934" y="1408"/>
      <point x="904" y="1453"/>
      <point x="853" y="1454" type="curve" smooth="yes"/>
    </contour>
    <component base="ii-cy"/>
  </outline>
</glyph>
<glyph name="te-cy" format="1">
  <advance width="1013"/>
  <unicode hex="0442"/>
  <outline>
    <contour>
      <point x="54" y="1024" type="line"/>
      <point x="45" y="715" type="line"/>
      <point x="123" y="715" type="line"/>
      <point x="123" y="887"/>
      <point x="171" y="937"/>
      <point x="280" y="937" type="curve" smooth="yes"/>
      <point x="428" y="937" type="line"/>
      <point x="420" y="890"/>
      <point x="420" y="862"/>
      <point x="420" y="807" type="curve" smooth="yes"/>
      <point x="420" y="311" type="line" smooth="yes"/>
      <point x="417" y="164"/>
      <point x="421" y="61"/>
      <point x="296" y="61" type="curve"/>
      <point x="296" y="0" type="line"/>
      <point x="714" y="0" type="line"/>
      <point x="714" y="84" type="line"/>
      <point x="585" y="78" type="line"/>
      <point x="593" y="125"/>
      <point x="593" y="162"/>
      <point x="593" y="217" type="curve" smooth="yes"/>
      <point x="593" y="937" type="line"/>
      <point x="721" y="937" type="line"/>
      <point x="850" y="937"/>
      <point x="886" y="887"/>
      <point x="890" y="715" type="curve"/>
      <point x="968" y="715" type="line"/>
      <point x="959" y="1024" type="line"/>
    </contour>
  </outline>
</glyph>
<glyph name="shcha-cy" format="1">
  <advance width="1716"/>
  <unicode hex="0449"/>
  <outline>
    <contour>
      <point x="1606" y="84" type="line"/>
      <point x="1413" y="0" type="line"/>
      <point x="1548" y="0"/>
      <point x="1583" y="-160"/>
      <point x="1583" y="-364" type="curve"/>
      <point x="1661" y="-364" type="line"/>
      <point x="1661" y="86" type="line"/>
    </contour>
    <component base="sha-cy"/>
  </outline>
</glyph>
<glyph name="softsign-cy" format="1">
  <advance width="1038"/>
  <unicode hex="044C"/>
  <outline>
    <contour>
      <point x="213" y="236" type="line" smooth="yes"/>
      <point x="213" y="128"/>
      <point x="190" y="64"/>
      <point x="90" y="61" type="curve"/>
      <point x="90" y="0" type="line"/>
      <point x="618" y="0" type="line" smooth="yes"/>
      <point x="797" y="0"/>
      <point x="953" y="107"/>
      <point x="953" y="304" type="curve" smooth="yes"/>
      <point x="953" y="466"/>
      <point x="847" y="605"/>
      <point x="516" y="597" type="curve" smooth="yes"/>
      <point x="389" y="594" type="line"/>
      <point x="389" y="783" type="line"/>
      <point x="213" y="807" type="line"/>
    </contour>
    <contour>
      <point x="687" y="521"/>
      <point x="772" y="439"/>
      <point x="772" y="298" type="curve" smooth="yes"/>
      <point x="772" y="142"/>
      <point x="670" y="81"/>
      <point x="544" y="81" type="curve" smooth="yes"/>
      <point x="525" y="81"/>
      <point x="430" y="79"/>
      <point x="384" y="84" type="curve"/>
      <point x="387" y="109"/>
      <point x="389" y="145"/>
      <point x="389" y="198" type="curve" smooth="yes"/>
      <point x="389" y="516" type="line"/>
      <point x="435" y="519"/>
      <point x="486" y="521"/>
      <point x="544" y="521" type="curve" smooth="yes"/>
    </contour>
    <contour>
      <point x="92" y="1024" type="line"/>
      <point x="92" y="940" type="line"/>
      <point x="221" y="946" type="line"/>
      <point x="213" y="899"/>
      <point x="213" y="862"/>
      <point x="213" y="807" type="curve"/>
      <point x="389" y="783" type="line"/>
      <point x="390" y="860"/>
      <point x="385" y="963"/>
      <point x="510" y="963" type="curve"/>
      <point x="510" y="1024" type="line"/>
    </contour>
  </outline>
</glyph>
<glyph name="dje-cy" format="1">
  <advance width="1214"/>
  <unicode hex="0452"/>
  <outline>
    <contour>
      <point x="309" y="1546" type="line"/>
      <point x="278" y="1518"/>
      <point x="233" y="1491"/>
      <point x="53" y="1491" type="curve"/>
      <point x="53" y="1405" type="line"/>
      <point x="198" y="1413" type="line"/>
      <point x="192" y="1358"/>
      <point x="192" y="1323"/>
      <point x="192" y="1280" type="curve" smooth="yes"/>
      <point x="192" y="311" type="line" smooth="yes"/>
      <point x="192" y="164"/>
      <point x="194" y="61"/>
      <point x="69" y="61" type="curve"/>
      <point x="69" y="0" type="line"/>
      <point x="487" y="0" type="line"/>
      <point x="487" y="84" type="line"/>
      <point x="358" y="78" type="line"/>
      <point x="366" y="125"/>
      <point x="368" y="162"/>
      <point x="368" y="217" type="curve" smooth="yes"/>
      <point x="368" y="822" type="line"/>
      <point x="429" y="894"/>
      <point x="534" y="947"/>
      <point x="634" y="949" type="curve" smooth="yes"/>
      <point x="802" y="952"/>
      <point x="868" y="807"/>
      <point x="868" y="523" type="curve" smooth="yes"/>
      <point x="868" y="9" type="line" smooth="yes"/>
      <point x="868" y="-367"/>
      <point x="817" y="-452"/>
      <point x="739" y="-443" type="curve"/>
      <point x="749" y="-427"/>
      <point x="752" y="-416"/>
      <point x="752" y="-397" type="curve" smooth="yes"/>
      <point x="752" y="-364"/>
      <point x="730" y="-309"/>
      <point x="663" y="-311" type="curve" smooth="yes"/>
      <point x="608" y="-312"/>
      <point x="575" y="-358"/>
      <point x="575" y="-408" type="curve" smooth="yes"/>
      <point x="575" y="-467"/>
      <point x="624" y="-522"/>
      <point x="737" y="-522" type="curve" smooth="yes"/>
      <point x="894" y="-522"/>
      <point x="1044" y="-410"/>
      <point x="1044" y="28" type="curve" smooth="yes"/>
      <point x="1044" y="525" type="line" smooth="yes"/>
      <point x="1044" y="918"/>
      <point x="954" y="1057"/>
      <point x="704" y="1057" type="curve" smooth="yes"/>
      <point x="587" y="1057"/>
      <point x="458" y="998"/>
      <point x="368" y="922" type="curve"/>
      <point x="368" y="1546" type="line"/>
    </contour>
    <contour>
      <point x="44" y="1279" type="line"/>
      <point x="44" y="1176" type="line"/>
      <point x="787" y="1184" type="line"/>
      <point x="787" y="1279" type="line"/>
    </contour>
  </outline>
</glyph>
<glyph name="e-cy" format="1">
  <advance width="1090"/>
  <unicode hex="0454"/>
  <outline>
    <contour>
      <point x="226" y="576" type="line"/>
      <point x="226" y="453" type="line"/>
      <point x="769" y="461" type="line"/>
      <point x="769" y="576" type="line"/>
    </contour>
    <component base="c"/>
  </outline>
</glyph>
<glyph name="lje-cy" format="1">
  <advance width="1550"/>
  <unicode hex="0459"/>
  <outline>
    <contour>
      <point x="785" y="236" type="line" smooth="yes"/>
      <point x="785" y="128"/>
      <point x="762" y="64"/>
      <point x="662" y="61" type="curve"/>
      <point x="662" y="0" type="line"/>
      <point x="1150" y="0" type="line" smooth="yes"/>
      <point x="1329" y="0"/>
      <point x="1485" y="107"/>
      <point x="1485" y="304" type="curve" smooth="yes"/>
      <point x="1485" y="466"/>
      <point x="1379" y="608"/>
      <point x="1048" y="597" type="curve" smooth="yes"/>
      <point x="961" y="594" type="line"/>
      <point x="961" y="713" type="line"/>
      <point x="785" y="807" type="line"/>
    </contour>
    <contour>
      <point x="1235" y="521"/>
      <point x="1304" y="439"/>
      <point x="1304" y="298" type="curve" smooth="yes"/>
      <point x="1304" y="142"/>
      <point x="1202" y="81"/>
      <point x="1076" y="81" type="curve" smooth="yes"/>
      <point x="1057" y="81"/>
      <point x="1002" y="79"/>
      <point x="956" y="84" type="curve"/>
      <point x="959" y="109"/>
      <point x="961" y="145"/>
      <point x="961" y="198" type="curve" smooth="yes"/>
      <point x="961" y="516" type="line"/>
      <point x="1007" y="519"/>
      <point x="1018" y="521"/>
      <point x="1076" y="521" type="curve" smooth="yes"/>
    </contour>
    <contour>
      <point x="495" y="966" type="line"/>
      <point x="490" y="785" type="line"/>
      <point x="542" y="785" type="line"/>
      <point x="543" y="883"/>
      <point x="569" y="946"/>
      <point x="663" y="946" type="curve"/>
      <point x="663" y="977" type="line"/>
    </contour>
    <contour>
      <point x="252" y="1024" type="line"/>
      <point x="252" y="935" type="line"/>
      <point x="474" y="946" type="line"/>
      <point x="793" y="946" type="line"/>
      <point x="785" y="899"/>
      <point x="785" y="862"/>
      <point x="785" y="807" type="curve"/>
      <point x="961" y="713" type="line"/>
      <point x="962" y="860"/>
      <point x="957" y="963"/>
      <point x="1082" y="963" type="curve"/>
      <point x="1082" y="1024" type="line"/>
    </contour>
    <contour>
      <point x="433" y="1007" type="line"/>
      <point x="434" y="863" type="line"/>
      <point x="418" y="354"/>
      <point x="308" y="79"/>
      <point x="228" y="79" type="curve" smooth="yes"/>
      <point x="218" y="79"/>
      <point x="211" y="82"/>
      <point x="204" y="89" type="curve"/>
      <point x="206" y="98"/>
      <point x="207" y="109"/>
      <point x="207" y="117" type="curve" smooth="yes"/>
      <point x="206" y="149"/>
      <point x="181" y="191"/>
      <point x="115" y="190" type="curve" smooth="yes"/>
      <point x="55" y="189"/>
      <point x="25" y="146"/>
      <point x="25" y="85" type="curve" smooth="yes"/>
      <point x="25" y="7"/>
      <point x="90" y="-33"/>
      <point x="188" y="-33" type="curve" smooth="yes"/>
      <point x="420" y="-33"/>
      <point x="522" y="384"/>
      <point x="542" y="773" type="curve" smooth="yes"/>
      <point x="542" y="845"/>
      <point x="544" y="923"/>
      <point x="547" y="1007" type="curve"/>
    </contour>
  </outline>
</glyph>
<glyph name="tshe-cy" format="1">
  <advance width="1227"/>
  <unicode hex="045B"/>
  <outline>
    <contour>
      <point x="44" y="1279" type="line"/>
      <point x="44" y="1176" type="line"/>
      <point x="787" y="1184" type="line"/>
      <point x="787" y="1279" type="line"/>
    </contour>
    <component base="h"/>
  </outline>
</glyph>
<glyph name="dzhe-cy" format="1">
  <advance width="1259"/>
  <unicode hex="045F"/>
  <outline>
    <contour>
      <point x="646" y="64" type="line"/>
      <point x="453" y="0" type="line"/>
      <point x="588" y="0"/>
      <point x="623" y="-160"/>
      <point x="623" y="-364" type="curve"/>
      <point x="701" y="-364" type="line"/>
      <point x="701" y="66" type="line"/>
    </contour>
    <component base="pe-cy" xOffset="1259" yOffset="1024" xScale="-1" yScale="-1"/>
  </outline>
</glyph>
<glyph name="gheupturn-cy" format="1">
  <advance width="896"/>
  <unicode hex="0491"/>
  <outline>
    <contour>
      <point x="862" y="942" type="line"/>
      <point x="871" y="1251" type="line"/>
      <point x="793" y="1251" type="line"/>
      <point x="789" y="1079"/>
      <point x="735" y="1024"/>
      <point x="514" y="1024" type="curve"/>
      <point x="514" y="942" type="line"/>
    </contour>
    <contour>
      <point x="514" y="1024" type="line"/>
      <point x="93" y="1024" type="line"/>
      <point x="93" y="940" type="line"/>
      <point x="221" y="946" type="line"/>
      <point x="213" y="899"/>
      <point x="213" y="862"/>
      <point x="213" y="807" type="curve" smooth="yes"/>
      <point x="213" y="686" type="line"/>
      <point x="214" y="311" type="line" smooth="yes"/>
      <point x="211" y="164"/>
      <point x="215" y="61"/>
      <point x="90" y="61" type="curve"/>
      <point x="90" y="0" type="line"/>
      <point x="508" y="0" type="line"/>
      <point x="508" y="84" type="line"/>
      <point x="379" y="78" type="line"/>
      <point x="387" y="125"/>
      <point x="387" y="162"/>
      <point x="387" y="217" type="curve" smooth="yes"/>
      <point x="389" y="713" type="line" smooth="yes"/>
      <point x="389" y="860"/>
      <point x="394" y="942"/>
      <point x="514" y="942" type="curve" smooth="yes"/>
    </contour>
  </outline>
</glyph>
<glyph name="ustraitstroke-cy" format="1">
  <advance width="1034"/>
  <unicode hex="04B1"/>
  <outline>
    <contour>
      <point x="704" y="1024" type="line"/>
      <point x="704" y="940" type="line"/>
      <point x="835" y="946" type="line"/>
      <point x="823" y="922"/>
      <point x="797" y="870"/>
      <point x="774" y="805" type="curve" smooth="yes"/>
      <point x="611" y="356" type="line"/>
      <point x="561" y="208" type="line"/>
      <point x="559" y="208" type="line"/>
      <point x="539" y="266"/>
      <point x="519" y="323"/>
      <point x="499" y="375" type="curve" smooth="yes"/>
      <point x="342" y="735" type="line" smooth="yes"/>
      <point x="290" y="854"/>
      <point x="264" y="963"/>
      <point x="389" y="963" type="curve"/>
      <point x="389" y="1024" type="line"/>
      <point x="12" y="1024" type="line"/>
      <point x="12" y="940" type="line"/>
      <point x="100" y="946" type="line"/>
      <point x="102" y="899"/>
      <point x="119" y="817"/>
      <point x="186" y="662" type="curve" smooth="yes"/>
      <point x="479" y="-6" type="line"/>
      <point x="561" y="-6" type="line"/>
      <point x="829" y="686" type="line" smooth="yes"/>
      <point x="901" y="870"/>
      <point x="938" y="963"/>
      <point x="1028" y="963" type="curve"/>
      <point x="1028" y="1024" type="line"/>
    </contour>
    <contour>
      <point x="431" y="68" type="line"/>
      <point x="429" y="-211" type="line" smooth="yes"/>
      <point x="427" y="-358"/>
      <point x="433" y="-461"/>
      <point x="308" y="-461" type="curve"/>
      <point x="308" y="-522" type="line"/>
      <point x="726" y="-522" type="line"/>
      <point x="726" y="-438" type="line"/>
      <point x="597" y="-444" type="line"/>
      <point x="605" y="-397"/>
      <point x="605" y="-360"/>
      <point x="605" y="-305" type="curve" smooth="yes"/>
      <point x="605" y="68" type="line"/>
    </contour>
    <contour>
      <point x="164" y="96" type="line"/>
      <point x="164" y="-7" type="line"/>
      <point x="907" y="1" type="line"/>
      <point x="907" y="96" type="line"/>
    </contour>
  </outline>
</glyph>
<glyph name="uni2074" format="1">
  <advance width="825"/>
  <unicode hex="2074"/>
  <outline>
    <contour>
      <point x="492" y="1467" type="line"/>
      <point x="84" y="901" type="line"/>
      <point x="84" y="840" type="line"/>
      <point x="431" y="840" type="line"/>
      <point x="431" y="820" type="line" smooth="yes"/>
      <point x="431" y="742"/>
      <point x="414" y="686"/>
      <point x="330" y="684" type="curve"/>
      <point x="330" y="625" type="line"/>
      <point x="631" y="625" type="line"/>
      <point x="631" y="695" type="line"/>
      <point x="547" y="691" type="line"/>
      <point x="546" y="840" type="line"/>
      <point x="662" y="840" type="line"/>
      <point x="662" y="914" type="line"/>
      <point x="546" y="915" type="line"/>
      <point x="545" y="1467" type="line"/>
    </contour>
    <contour>
      <point x="430" y="917" type="line"/>
      <point x="180" y="921" type="line"/>
      <point x="428" y="1268" type="line"/>
      <point x="430" y="1268" type="line"/>
    </contour>
  </outline>
</glyph>
<glyph name="uni20BD" format="1">
  <advance width="1200"/>
  <unicode hex="20BD"/>
  <outline>
    <contour>
      <point x="404" y="624" type="line"/>
      <point x="97" y="624" type="line"/>
      <point x="97" y="538" type="line"/>
      <point x="404" y="538" type="line"/>
    </contour>
    <contour>
      <point x="834" y="404" type="line"/>
      <point x="97" y="404" type="line"/>
      <point x="97" y="318" type="line"/>
      <point x="834" y="319" type="line"/>
    </contour>
    <contour>
      <point x="410" y="1437"/>
      <point x="256" y="1436"/>
      <point x="113" y="1434" type="curve"/>
      <point x="113" y="1343" type="line"/>
      <point x="261" y="1352" type="line"/>
      <point x="256" y="1311"/>
      <point x="254" y="1260"/>
      <point x="254" y="1204" type="curve" smooth="yes"/>
      <point x="254" y="319" type="line" smooth="yes"/>
      <point x="254" y="174"/>
      <point x="267" y="74"/>
      <point x="113" y="68" type="curve"/>
      <point x="113" y="0" type="line"/>
      <point x="615" y="0" type="line"/>
      <point x="615" y="92" type="line"/>
      <point x="426" y="82" type="line"/>
      <point x="431" y="117"/>
      <point x="433" y="170"/>
      <point x="433" y="244" type="curve" smooth="yes"/>
      <point x="433" y="540" type="line"/>
      <point x="459" y="539"/>
      <point x="493" y="539"/>
      <point x="506" y="539" type="curve" smooth="yes"/>
      <point x="988" y="539"/>
      <point x="1109" y="827"/>
      <point x="1109" y="1040" type="curve" smooth="yes"/>
      <point x="1109" y="1303"/>
      <point x="886" y="1437"/>
      <point x="570" y="1437" type="curve" smooth="yes"/>
    </contour>
    <contour>
      <point x="758" y="1357"/>
      <point x="911" y="1231"/>
      <point x="911" y="1001" type="curve" smooth="yes"/>
      <point x="911" y="762"/>
      <point x="750" y="618"/>
      <point x="566" y="618" type="curve" smooth="yes"/>
      <point x="515" y="618"/>
      <point x="484" y="618"/>
      <point x="433" y="625" type="curve"/>
      <point x="433" y="1114" type="line" smooth="yes"/>
      <point x="433" y="1260"/>
      <point x="420" y="1357"/>
      <point x="566" y="1357" type="curve" smooth="yes"/>
    </contour>
  </outline>
</glyph>
<glyph name="trademark" format="1">
  <advance width="2187"/>
  <unicode hex="2122"/>
  <outline>
    <contour>
      <point x="1772" y="1434" type="line"/>
      <point x="1700" y="1251"/>
      <point x="1633" y="1094"/>
      <point x="1565" y="926" type="curve" smooth="yes"/>
      <point x="1549" y="885"/>
      <point x="1523" y="821"/>
      <point x="1501" y="774" type="curve"/>
      <point x="1499" y="774" type="line"/>
      <point x="1465" y="852"/>
      <point x="1434" y="929"/>
      <point x="1407" y="995" type="curve" smooth="yes"/>
      <point x="1225" y="1434" type="line"/>
      <point x="961" y="1434" type="line"/>
      <point x="961" y="1352" type="line"/>
      <point x="1048" y="1357" type="line"/>
      <point x="1046" y="1344"/>
      <point x="1047" y="1323"/>
      <point x="1024" y="825" type="curve" smooth="yes"/>
      <point x="1020" y="741"/>
      <point x="1004" y="684"/>
      <point x="922" y="682" type="curve"/>
      <point x="922" y="625" type="line"/>
      <point x="1211" y="625" type="line"/>
      <point x="1211" y="694" type="line"/>
      <point x="1110" y="688" type="line"/>
      <point x="1117" y="711"/>
      <point x="1119" y="739"/>
      <point x="1121" y="774" type="curve" smooth="yes"/>
      <point x="1137" y="1221" type="line" smooth="yes"/>
      <point x="1138" y="1244"/>
      <point x="1139" y="1269"/>
      <point x="1139" y="1293" type="curve"/>
      <point x="1141" y="1293" type="line"/>
      <point x="1160" y="1238"/>
      <point x="1180" y="1184"/>
      <point x="1201" y="1135" type="curve" smooth="yes"/>
      <point x="1263" y="986"/>
      <point x="1360" y="766"/>
      <point x="1430" y="612" type="curve"/>
      <point x="1526" y="612" type="line"/>
      <point x="1786" y="1249" type="line"/>
      <point x="1788" y="1249" type="line"/>
      <point x="1815" y="829" type="line" smooth="yes"/>
      <point x="1820" y="747"/>
      <point x="1805" y="688"/>
      <point x="1733" y="680" type="curve"/>
      <point x="1721" y="680" type="line"/>
      <point x="1721" y="623" type="line"/>
      <point x="2059" y="623" type="line"/>
      <point x="2059" y="694" type="line"/>
      <point x="1958" y="690" type="line"/>
      <point x="1959" y="717"/>
      <point x="1958" y="760"/>
      <point x="1956" y="791" type="curve" smooth="yes"/>
      <point x="1926" y="1221" type="line" smooth="yes"/>
      <point x="1920" y="1307"/>
      <point x="1932" y="1364"/>
      <point x="2012" y="1366" type="curve"/>
      <point x="2012" y="1434" type="line"/>
    </contour>
    <contour>
      <point x="136" y="1434" type="line"/>
      <point x="129" y="1163" type="line"/>
      <point x="191" y="1163" type="line"/>
      <point x="191" y="1286"/>
      <point x="222" y="1354"/>
      <point x="304" y="1355" type="curve" smooth="yes"/>
      <point x="435" y="1356" type="line"/>
      <point x="435" y="805" type="line" smooth="yes"/>
      <point x="435" y="731"/>
      <point x="418" y="678"/>
      <point x="340" y="678" type="curve"/>
      <point x="340" y="621" type="line"/>
      <point x="674" y="621" type="line"/>
      <point x="674" y="694" type="line"/>
      <point x="580" y="690" type="line"/>
      <point x="582" y="713"/>
      <point x="582" y="743"/>
      <point x="582" y="774" type="curve" smooth="yes"/>
      <point x="582" y="1357" type="line"/>
      <point x="672" y="1358" type="line" smooth="yes"/>
      <point x="791" y="1359"/>
      <point x="822" y="1296"/>
      <point x="826" y="1163" type="curve"/>
      <point x="887" y="1163" type="line"/>
      <point x="879" y="1434" type="line"/>
    </contour>
  </outline>
</glyph>
<glyph name="summation" format="1">
  <advance width="1305"/>
  <unicode hex="2211"/>
  <outline>
    <contour>
      <point x="63" y="1434" type="line"/>
      <point x="63" y="1343" type="line"/>
      <point x="157" y="1348" type="line"/>
      <point x="161" y="1322"/>
      <point x="177" y="1286"/>
      <point x="209" y="1227" type="curve" smooth="yes"/>
      <point x="633" y="424" type="line"/>
      <point x="219" y="-299" type="line" smooth="yes"/>
      <point x="187" y="-355"/>
      <point x="129" y="-434"/>
      <point x="78" y="-432" type="curve"/>
      <point x="78" y="-522" type="line"/>
      <point x="1196" y="-522" type="line"/>
      <point x="1208" y="-123" type="line"/>
      <point x="1138" y="-123" type="line"/>
      <point x="1138" y="-364"/>
      <point x="1026" y="-450"/>
      <point x="848" y="-446" type="curve" smooth="yes"/>
      <point x="243" y="-440" type="line"/>
      <point x="277" y="-396"/>
      <point x="311" y="-341"/>
      <point x="346" y="-280" type="curve" smooth="yes"/>
      <point x="786" y="502" type="line"/>
      <point x="395" y="1264" type="line" smooth="yes"/>
      <point x="379" y="1294"/>
      <point x="362" y="1324"/>
      <point x="342" y="1352" type="curve"/>
      <point x="811" y="1362" type="line" smooth="yes"/>
      <point x="964" y="1365"/>
      <point x="1087" y="1317"/>
      <point x="1087" y="1075" type="curve"/>
      <point x="1155" y="1075" type="line"/>
      <point x="1145" y="1434" type="line"/>
    </contour>
  </outline>
</glyph>
<glyph name="uni2215" format="1">
  <advance width="767"/>
  <unicode hex="2215"/>
  <outline>
    <contour>
      <point x="-33" y="-72" type="line"/>
      <point x="52" y="-111" type="line"/>
      <point x="757" y="1471" type="line"/>
      <point x="657" y="1519" type="line"/>
    </contour>
  </outline>
</glyph>
<glyph name="notequal" format="1">
  <advance width="1145"/>
  <unicode hex="2260"/>
  <outline>
    <contour>
      <point x="686" y="876" type="line"/>
      <point x="115" y="879" type="line"/>
      <point x="115" y="752" type="line"/>
      <point x="605" y="754" type="line"/>
      <point x="431" y="492" type="line"/>
      <point x="115" y="494" type="line"/>
      <point x="115" y="367" type="line"/>
      <point x="348" y="368" type="line"/>
      <point x="201" y="147" type="line"/>
      <point x="291" y="82" type="line"/>
      <point x="483" y="368" type="line"/>
      <point x="1027" y="371" type="line"/>
      <point x="1027" y="490" type="line"/>
      <point x="565" y="492" type="line"/>
      <point x="741" y="754" type="line"/>
      <point x="1027" y="756" type="line"/>
      <point x="1027" y="875" type="line"/>
      <point x="822" y="876" type="line"/>
      <point x="949" y="1065" type="line"/>
      <point x="855" y="1130" type="line"/>
    </contour>
  </outline>
</glyph>
<glyph name="Caron" format="1">
  <advance width="963"/>
  <outline>
    <contour>
      <point x="481" y="1776" type="line"/>
      <point x="137" y="1956" type="line"/>
      <point x="92" y="1887" type="line"/>
      <point x="469" y="1598" type="line"/>
      <point x="473" y="1598" type="line"/>
      <point x="870" y="1895" type="line"/>
      <point x="829" y="1960" type="line"/>
    </contour>
  </outline>
</glyph>
<glyph name="Cedilla" format="1">
  <advance width="618"/>
  <outline>
    <contour>
      <point x="172" y="16" type="line"/>
      <point x="113" y="-217" type="line"/>
      <point x="186" y="-251" type="line"/>
      <point x="248" y="-213"/>
      <point x="342" y="-204"/>
      <point x="342" y="-288" type="curve" smooth="yes"/>
      <point x="342" y="-368"/>
      <point x="231" y="-430"/>
      <point x="92" y="-454" type="curve"/>
      <point x="104" y="-532" type="line"/>
      <point x="244" y="-512"/>
      <point x="526" y="-436"/>
      <point x="526" y="-270" type="curve" smooth="yes"/>
      <point x="526" y="-188"/>
      <point x="473" y="-124"/>
      <point x="369" y="-124" type="curve" smooth="yes"/>
      <point x="336" y="-124"/>
      <point x="274" y="-133"/>
      <point x="235" y="-157" type="curve"/>
      <point x="290" y="16" type="line"/>
    </contour>
  </outline>
</glyph>
<glyph name="Tilde" format="1">
  <advance width="975"/>
  <outline>
    <contour>
      <point x="238" y="1862"/>
      <point x="139" y="1772"/>
      <point x="92" y="1653" type="curve"/>
      <point x="162" y="1614" type="line"/>
      <point x="213" y="1690"/>
      <point x="254" y="1737"/>
      <point x="313" y="1737" type="curve" smooth="yes"/>
      <point x="410" y="1737"/>
      <point x="481" y="1591"/>
      <point x="639" y="1591" type="curve" smooth="yes"/>
      <point x="729" y="1591"/>
      <point x="825" y="1653"/>
      <point x="883" y="1821" type="curve"/>
      <point x="817" y="1853" type="line"/>
      <point x="776" y="1782"/>
      <point x="725" y="1720"/>
      <point x="651" y="1720" type="curve" smooth="yes"/>
      <point x="541" y="1720"/>
      <point x="485" y="1868"/>
      <point x="324" y="1864" type="curve" smooth="yes"/>
    </contour>
  </outline>
</glyph>
